<svg width="20" height="20" viewBox="0 0 20 20" fill="none" xmlns="http://www.w3.org/2000/svg">
<g clip-path="url(#clip0_221_792)">
<path d="M18.3333 1.87493H15.625V0.624929C15.6251 0.459168 15.5594 0.300153 15.4422 0.182865C15.3251 0.0655764 15.1662 -0.000377626 15.0004 -0.000488133C14.8347 -0.00059864 14.6756 0.0651434 14.5584 0.182276C14.4411 0.299408 14.3751 0.458335 14.375 0.624095V1.87493H10.625V0.624929C10.6251 0.542852 10.6089 0.461569 10.5776 0.38572C10.5462 0.30987 10.5002 0.24094 10.4422 0.182865C10.3842 0.124789 10.3154 0.0787063 10.2396 0.0472466C10.1638 0.0157869 10.0825 -0.000433425 10.0004 -0.000488142C9.83466 -0.000598649 9.67564 0.0651434 9.55835 0.182276C9.44106 0.299408 9.37511 0.458335 9.375 0.624095V1.87493H5.625V0.624929C5.62505 0.542852 5.60894 0.461569 5.57758 0.38572C5.54623 0.30987 5.50023 0.24094 5.44224 0.182865C5.38424 0.124789 5.31537 0.0787063 5.23956 0.0472466C5.16375 0.0157869 5.08249 -0.000433425 5.00042 -0.000488142C4.83466 -0.000598649 4.67564 0.0651434 4.55835 0.182276C4.44106 0.299408 4.37511 0.458335 4.375 0.624095V1.87493H1.66667C1.22478 1.87493 0.800987 2.05041 0.48845 2.36279C0.175913 2.67517 0.000220942 3.09888 0 3.54076V18.3324C0 18.7745 0.175595 19.1984 0.488155 19.5109C0.800716 19.8235 1.22464 19.9991 1.66667 19.9991H18.3333C18.7754 19.9991 19.1993 19.8235 19.5118 19.5109C19.8244 19.1984 20 18.7745 20 18.3324V3.54076C19.9998 3.09888 19.8241 2.67517 19.5115 2.36279C19.199 2.05041 18.7752 1.87493 18.3333 1.87493ZM18.75 18.3333C18.75 18.4436 18.7062 18.5495 18.6283 18.6276C18.5503 18.7057 18.4445 18.7497 18.3342 18.7499H1.66667C1.55616 18.7499 1.45018 18.706 1.37204 18.6279C1.2939 18.5498 1.25 18.4438 1.25 18.3333V3.5416C1.25022 3.43123 1.29422 3.32547 1.37233 3.24751C1.45045 3.16955 1.5563 3.12576 1.66667 3.12576H4.375V4.37576C4.37489 4.54152 4.44063 4.70054 4.55776 4.81783C4.6749 4.93511 4.83382 5.00107 4.99958 5.00118C5.16534 5.00129 5.32436 4.93555 5.44165 4.81842C5.55894 4.70128 5.62489 4.54236 5.625 4.3766V3.12576H9.375V4.37576C9.37489 4.54152 9.44063 4.70054 9.55776 4.81783C9.6749 4.93511 9.83382 5.00107 9.99958 5.00118C10.1653 5.00129 10.3244 4.93555 10.4416 4.81842C10.5589 4.70128 10.6249 4.54236 10.625 4.3766V3.12576H14.375V4.37576C14.3749 4.54152 14.4406 4.70054 14.5578 4.81783C14.6749 4.93511 14.8338 5.00107 14.9996 5.00118C15.1653 5.00129 15.3244 4.93555 15.4416 4.81842C15.5589 4.70128 15.6249 4.54236 15.625 4.3766V3.12576H18.3333C18.4436 3.12598 18.5492 3.16986 18.6271 3.2478C18.7051 3.32574 18.7489 3.43138 18.7492 3.5416L18.75 18.3333Z" fill="black"/>
<path d="M4.375 7.5H6.875V9.375H4.375V7.5ZM4.375 10.625H6.875V12.5H4.375V10.625ZM4.375 13.75H6.875V15.625H4.375V13.75ZM8.75 13.75H11.25V15.625H8.75V13.75ZM8.75 10.625H11.25V12.5H8.75V10.625ZM8.75 7.5H11.25V9.375H8.75V7.5ZM13.125 13.75H15.625V15.625H13.125V13.75ZM13.125 10.625H15.625V12.5H13.125V10.625ZM13.125 7.5H15.625V9.375H13.125V7.5Z" fill="black"/>
</g>
<defs>
<clipPath id="clip0_221_792">
<rect width="20" height="20" fill="white"/>
</clipPath>
</defs>
</svg>
